<svg width="48" height="48" viewBox="0 0 48 48" fill="none" xmlns="http://www.w3.org/2000/svg">
<path d="M23.6842 0C10.845 0 0 10.845 0 23.6842C0 36.5234 10.845 47.3684 23.6842 47.3684C36.5234 47.3684 47.3684 36.5234 47.3684 23.6842C47.3684 10.845 36.5234 0 23.6842 0ZM23.6842 11.8421C27.7745 11.8421 30.7895 14.8547 30.7895 18.9474C30.7895 23.04 27.7745 26.0526 23.6842 26.0526C19.5963 26.0526 16.5789 23.04 16.5789 18.9474C16.5789 14.8547 19.5963 11.8421 23.6842 11.8421ZM11.5911 34.9863C13.7155 31.86 17.2587 29.7758 21.3158 29.7758H26.0526C30.1121 29.7758 33.6529 31.86 35.7774 34.9863C32.7505 38.2263 28.4566 40.2632 23.6842 40.2632C18.9118 40.2632 14.6179 38.2263 11.5911 34.9863Z" fill="#F5DE19"/>
</svg>
