<svg width="18" height="18" viewBox="0 0 18 18" fill="none" xmlns="http://www.w3.org/2000/svg">
<path d="M16.6472 4.66241C16.0192 5.29039 15.7052 5.60438 15.3758 5.66515C15.0464 5.72592 14.8302 5.50973 14.3978 5.07735L12.9227 3.60217C12.4903 3.16979 12.2741 2.9536 12.3349 2.62418C12.3956 2.29477 12.7096 1.98078 13.3376 1.3528L13.6776 1.01282C14.3056 0.38484 14.6196 0.0708477 14.949 0.0100812C15.2784 -0.0506853 15.4946 0.165504 15.9269 0.597883L17.4021 2.07307C17.8345 2.50545 18.0507 2.72164 17.9899 3.05105C17.9292 3.38046 17.6152 3.69445 16.9872 4.32243L16.6472 4.66241Z" fill="#4B85FA"/>
<path d="M1.43109 17.866C0.681298 18.0044 0.306403 18.0735 0.116442 17.8836C-0.0735192 17.6936 -0.00436286 17.3187 0.13395 16.5689L0.46763 14.76C0.527595 14.435 0.557578 14.2724 0.645075 14.1151C0.732571 13.9578 0.8687 13.8217 1.14096 13.5494L9.47157 5.21882C10.0996 4.59084 10.4135 4.27684 10.743 4.21608C11.0724 4.15531 11.2886 4.3715 11.7209 4.80388L13.1961 6.27906C13.6285 6.71144 13.8447 6.92763 13.7839 7.25704C13.7232 7.58646 13.4092 7.90045 12.7812 8.52843L4.45057 16.859C4.17831 17.1313 4.04218 17.2674 3.88487 17.3549C3.72755 17.4424 3.56502 17.4724 3.23995 17.5324L1.43109 17.866Z" fill="#4B85FA"/>
</svg>
